<mxfile host="app.diagrams.net" modified="2022-06-23T12:29:58.213Z" agent="5.0 (Windows NT 10.0; Win64; x64) AppleWebKit/537.36 (KHTML, like Gecko) Chrome/102.0.0.0 Safari/537.36" etag="X8I8ZSqa8BotJ4ntzxre" version="19.0.1" type="github">
  <diagram id="Kd7wyASOu7EeAkc9sLa2" name="Page-1">
    <mxGraphModel dx="2942" dy="1122" grid="1" gridSize="10" guides="1" tooltips="1" connect="1" arrows="1" fold="1" page="1" pageScale="1" pageWidth="850" pageHeight="1100" math="0" shadow="0">
      <root>
        <mxCell id="0" />
        <mxCell id="1" parent="0" />
        <mxCell id="bY9OKArqrkYzBHjtCmCj-1" value="ES2+" style="edgeStyle=orthogonalEdgeStyle;rounded=0;orthogonalLoop=1;jettySize=auto;exitX=1;exitY=0.5;exitDx=0;exitDy=0;entryX=0;entryY=0.5;entryDx=0;entryDy=0;startArrow=classic;startFill=1;strokeWidth=2;labelBackgroundColor=none;verticalAlign=bottom;fontStyle=1;fontColor=default;" edge="1" parent="1" source="bY9OKArqrkYzBHjtCmCj-2" target="bY9OKArqrkYzBHjtCmCj-6">
          <mxGeometry relative="1" as="geometry" />
        </mxCell>
        <mxCell id="bY9OKArqrkYzBHjtCmCj-2" value="SM-DP+" style="rounded=0;labelBackgroundColor=none;fontColor=default;" vertex="1" parent="1">
          <mxGeometry x="355" y="300" width="120" height="40" as="geometry" />
        </mxCell>
        <mxCell id="bY9OKArqrkYzBHjtCmCj-3" value="ES12" style="edgeStyle=orthogonalEdgeStyle;rounded=0;orthogonalLoop=1;jettySize=auto;exitX=0.5;exitY=0;exitDx=0;exitDy=0;entryX=0;entryY=0.5;entryDx=0;entryDy=0;startArrow=classic;startFill=1;fillColor=#f8cecc;strokeColor=#b85450;strokeWidth=2;labelBackgroundColor=none;verticalAlign=bottom;fontStyle=1;fontColor=default;" edge="1" parent="1" source="bY9OKArqrkYzBHjtCmCj-4" target="bY9OKArqrkYzBHjtCmCj-2">
          <mxGeometry relative="1" as="geometry" />
        </mxCell>
        <mxCell id="bY9OKArqrkYzBHjtCmCj-4" value="SM-DS" style="rounded=0;labelBackgroundColor=none;fontColor=default;" vertex="1" parent="1">
          <mxGeometry x="170" y="370" width="120" height="40" as="geometry" />
        </mxCell>
        <mxCell id="bY9OKArqrkYzBHjtCmCj-5" value="ESop" style="edgeStyle=orthogonalEdgeStyle;rounded=0;orthogonalLoop=1;jettySize=auto;exitX=0.5;exitY=1;exitDx=0;exitDy=0;entryX=0.5;entryY=0;entryDx=0;entryDy=0;startArrow=classic;startFill=1;strokeWidth=2;labelBackgroundColor=none;verticalAlign=bottom;fontStyle=1;fontColor=default;" edge="1" parent="1" source="bY9OKArqrkYzBHjtCmCj-6" target="bY9OKArqrkYzBHjtCmCj-7">
          <mxGeometry x="-0.0455" relative="1" as="geometry">
            <mxPoint as="offset" />
          </mxGeometry>
        </mxCell>
        <mxCell id="bY9OKArqrkYzBHjtCmCj-6" value="Operator" style="rounded=0;labelBackgroundColor=none;fontColor=default;" vertex="1" parent="1">
          <mxGeometry x="550" y="300" width="120" height="40" as="geometry" />
        </mxCell>
        <mxCell id="bY9OKArqrkYzBHjtCmCj-7" value="End User" style="rounded=0;labelBackgroundColor=none;fontColor=default;" vertex="1" parent="1">
          <mxGeometry x="630" y="470" width="80" height="40" as="geometry" />
        </mxCell>
        <mxCell id="bY9OKArqrkYzBHjtCmCj-8" value="ES15" style="edgeStyle=orthogonalEdgeStyle;rounded=0;orthogonalLoop=1;jettySize=auto;exitX=0.75;exitY=0;exitDx=0;exitDy=0;entryX=1;entryY=0.25;entryDx=0;entryDy=0;startArrow=classic;startFill=1;strokeWidth=2;labelBackgroundColor=none;verticalAlign=bottom;fontStyle=1;align=left;fontColor=default;" edge="1" parent="1" source="bY9OKArqrkYzBHjtCmCj-4" target="bY9OKArqrkYzBHjtCmCj-4">
          <mxGeometry x="-0.2857" relative="1" as="geometry">
            <Array as="points">
              <mxPoint x="260" y="350" />
              <mxPoint x="320" y="350" />
              <mxPoint x="320" y="380" />
            </Array>
            <mxPoint as="offset" />
          </mxGeometry>
        </mxCell>
        <mxCell id="bY9OKArqrkYzBHjtCmCj-9" value="SCP80/81, PSK-TLS" style="endArrow=classic;startArrow=classic;rounded=0;strokeWidth=2;fillColor=#dae8fc;strokeColor=#6c8ebf;verticalAlign=bottom;labelBackgroundColor=none;fontColor=default;" edge="1" parent="1">
          <mxGeometry width="50" height="50" relative="1" as="geometry">
            <mxPoint x="270" y="219" as="sourcePoint" />
            <mxPoint x="170" y="219" as="targetPoint" />
          </mxGeometry>
        </mxCell>
        <mxCell id="bY9OKArqrkYzBHjtCmCj-10" value="SCP03t" style="endArrow=classic;startArrow=classic;rounded=0;strokeWidth=2;fillColor=#d5e8d4;strokeColor=#82b366;verticalAlign=bottom;labelBackgroundColor=none;fontColor=default;" edge="1" parent="1">
          <mxGeometry width="50" height="50" relative="1" as="geometry">
            <mxPoint x="270" y="239" as="sourcePoint" />
            <mxPoint x="170" y="239" as="targetPoint" />
          </mxGeometry>
        </mxCell>
        <mxCell id="bY9OKArqrkYzBHjtCmCj-11" value="TLS" style="endArrow=classic;startArrow=classic;rounded=0;strokeWidth=2;fillColor=#f8cecc;strokeColor=#b85450;verticalAlign=bottom;labelBackgroundColor=none;fontColor=default;" edge="1" parent="1">
          <mxGeometry width="50" height="50" relative="1" as="geometry">
            <mxPoint x="270" y="259" as="sourcePoint" />
            <mxPoint x="170" y="259" as="targetPoint" />
          </mxGeometry>
        </mxCell>
        <mxCell id="bY9OKArqrkYzBHjtCmCj-12" value="Device" style="rounded=0;fillColor=#f5f5f5;strokeColor=#666666;verticalAlign=top;align=left;fontStyle=1;fontColor=default;labelBackgroundColor=none;" vertex="1" parent="1">
          <mxGeometry x="245" y="420" width="340" height="270" as="geometry" />
        </mxCell>
        <mxCell id="bY9OKArqrkYzBHjtCmCj-13" value="eUICC" style="rounded=0;verticalAlign=top;fillColor=#ffe6cc;strokeColor=#d79b00;align=left;fontStyle=1;labelBackgroundColor=none;fontColor=default;" vertex="1" parent="1">
          <mxGeometry x="255" y="520" width="320" height="150" as="geometry" />
        </mxCell>
        <mxCell id="bY9OKArqrkYzBHjtCmCj-14" value="ECASD" style="rounded=1;fillColor=#f5f5f5;fontColor=default;strokeColor=#666666;labelBackgroundColor=none;" vertex="1" parent="1">
          <mxGeometry x="260" y="610" width="100" height="50" as="geometry" />
        </mxCell>
        <mxCell id="bY9OKArqrkYzBHjtCmCj-15" value="ISD-R" style="rounded=1;fillColor=#f5f5f5;fontColor=default;strokeColor=#666666;labelBackgroundColor=none;" vertex="1" parent="1">
          <mxGeometry x="365" y="610" width="100" height="50" as="geometry" />
        </mxCell>
        <mxCell id="bY9OKArqrkYzBHjtCmCj-16" value="Profile" style="rounded=0;verticalAlign=top;fillColor=#d5e8d4;strokeColor=#82b366;labelBackgroundColor=none;fontColor=default;" vertex="1" parent="1">
          <mxGeometry x="470" y="530" width="100" height="110" as="geometry" />
        </mxCell>
        <mxCell id="bY9OKArqrkYzBHjtCmCj-17" value="MNO-SD" style="rounded=1;fillColor=#f5f5f5;fontColor=default;strokeColor=#666666;labelBackgroundColor=none;" vertex="1" parent="1">
          <mxGeometry x="475" y="556" width="90" height="20" as="geometry" />
        </mxCell>
        <mxCell id="bY9OKArqrkYzBHjtCmCj-18" value="NAA" style="rounded=1;fillColor=#f5f5f5;fontColor=default;strokeColor=#666666;labelBackgroundColor=none;" vertex="1" parent="1">
          <mxGeometry x="475" y="576" width="90" height="20" as="geometry" />
        </mxCell>
        <mxCell id="bY9OKArqrkYzBHjtCmCj-19" value="Policy Rules" style="rounded=1;fillColor=#f5f5f5;fontColor=default;strokeColor=#666666;labelBackgroundColor=none;" vertex="1" parent="1">
          <mxGeometry x="475" y="596" width="90" height="20" as="geometry" />
        </mxCell>
        <mxCell id="bY9OKArqrkYzBHjtCmCj-20" value="Other" style="rounded=1;fillColor=#f5f5f5;fontColor=default;strokeColor=#666666;labelBackgroundColor=none;" vertex="1" parent="1">
          <mxGeometry x="475" y="616" width="90" height="20" as="geometry" />
        </mxCell>
        <mxCell id="bY9OKArqrkYzBHjtCmCj-21" value="ISD-P" style="rounded=0;fillColor=#f5f5f5;fontColor=default;strokeColor=#666666;labelBackgroundColor=none;" vertex="1" parent="1">
          <mxGeometry x="470" y="640" width="100" height="20" as="geometry" />
        </mxCell>
        <mxCell id="bY9OKArqrkYzBHjtCmCj-22" value="LPA" style="rounded=0;fillColor=#e1d5e7;strokeColor=#9673a6;verticalAlign=top;align=left;fontStyle=1;labelBackgroundColor=none;fontColor=default;" vertex="1" parent="1">
          <mxGeometry x="255" y="450" width="320" height="60" as="geometry" />
        </mxCell>
        <mxCell id="bY9OKArqrkYzBHjtCmCj-39" style="edgeStyle=orthogonalEdgeStyle;rounded=0;orthogonalLoop=1;jettySize=auto;exitX=0.75;exitY=0;exitDx=0;exitDy=0;entryX=0.25;entryY=0;entryDx=0;entryDy=0;startArrow=classic;startFill=1;strokeWidth=2;fillColor=#fff2cc;strokeColor=#d6b656;" edge="1" parent="1" source="bY9OKArqrkYzBHjtCmCj-23" target="bY9OKArqrkYzBHjtCmCj-32">
          <mxGeometry relative="1" as="geometry" />
        </mxCell>
        <mxCell id="bY9OKArqrkYzBHjtCmCj-23" value="LDS" style="rounded=1;fillColor=#f5f5f5;fontColor=default;strokeColor=#666666;labelBackgroundColor=none;" vertex="1" parent="1">
          <mxGeometry x="260" y="475" width="100" height="30" as="geometry" />
        </mxCell>
        <mxCell id="bY9OKArqrkYzBHjtCmCj-24" value="LUI" style="rounded=1;fillColor=#f5f5f5;fontColor=default;strokeColor=#666666;labelBackgroundColor=none;" vertex="1" parent="1">
          <mxGeometry x="470" y="475" width="100" height="30" as="geometry" />
        </mxCell>
        <mxCell id="bY9OKArqrkYzBHjtCmCj-25" value="ES10b" style="edgeStyle=orthogonalEdgeStyle;rounded=0;orthogonalLoop=1;jettySize=auto;startArrow=classic;startFill=1;shape=flexArrow;entryX=0.5;entryY=0;entryDx=0;entryDy=0;fillColor=#f5f5f5;strokeColor=#666666;exitX=0.5;exitY=1;exitDx=0;exitDy=0;labelBackgroundColor=none;verticalAlign=top;align=right;fontStyle=1;fontColor=default;" edge="1" parent="1" source="bY9OKArqrkYzBHjtCmCj-22" target="bY9OKArqrkYzBHjtCmCj-15">
          <mxGeometry x="-0.6" y="-5" relative="1" as="geometry">
            <mxPoint x="-175" y="780" as="sourcePoint" />
            <mxPoint as="offset" />
          </mxGeometry>
        </mxCell>
        <mxCell id="bY9OKArqrkYzBHjtCmCj-26" value="ES10c" style="edgeStyle=orthogonalEdgeStyle;rounded=0;orthogonalLoop=1;jettySize=auto;exitX=0.5;exitY=1;exitDx=0;exitDy=0;entryX=0.75;entryY=0;entryDx=0;entryDy=0;startArrow=classic;startFill=1;strokeWidth=2;labelBackgroundColor=none;align=left;fontStyle=1;fontColor=default;" edge="1" parent="1" source="bY9OKArqrkYzBHjtCmCj-24" target="bY9OKArqrkYzBHjtCmCj-15">
          <mxGeometry x="0.3514" relative="1" as="geometry">
            <Array as="points">
              <mxPoint x="520" y="520" />
              <mxPoint x="440" y="520" />
            </Array>
            <mxPoint as="offset" />
          </mxGeometry>
        </mxCell>
        <mxCell id="bY9OKArqrkYzBHjtCmCj-27" value="ES10a" style="edgeStyle=orthogonalEdgeStyle;rounded=0;orthogonalLoop=1;jettySize=auto;exitX=0.5;exitY=1;exitDx=0;exitDy=0;entryX=0.25;entryY=0;entryDx=0;entryDy=0;startArrow=classic;startFill=1;strokeWidth=2;align=right;labelBackgroundColor=none;fontStyle=1;fontColor=default;" edge="1" parent="1" source="bY9OKArqrkYzBHjtCmCj-23" target="bY9OKArqrkYzBHjtCmCj-15">
          <mxGeometry x="0.5676" relative="1" as="geometry">
            <Array as="points">
              <mxPoint x="310" y="520" />
              <mxPoint x="390" y="520" />
            </Array>
            <mxPoint as="offset" />
          </mxGeometry>
        </mxCell>
        <mxCell id="bY9OKArqrkYzBHjtCmCj-28" value="ES9+" style="edgeStyle=orthogonalEdgeStyle;rounded=0;orthogonalLoop=1;jettySize=auto;exitX=0.5;exitY=1;exitDx=0;exitDy=0;entryX=0.5;entryY=0;entryDx=0;entryDy=0;startArrow=classic;startFill=1;shape=flexArrow;fillColor=#f8cecc;strokeColor=#b85450;align=right;labelBackgroundColor=none;verticalAlign=middle;fontStyle=1;fontColor=default;" edge="1" parent="1" source="bY9OKArqrkYzBHjtCmCj-2" target="bY9OKArqrkYzBHjtCmCj-32">
          <mxGeometry x="-0.2593" y="-5" relative="1" as="geometry">
            <Array as="points">
              <mxPoint x="415" y="445" />
            </Array>
            <mxPoint as="offset" />
          </mxGeometry>
        </mxCell>
        <mxCell id="bY9OKArqrkYzBHjtCmCj-29" value="ES8+&#xa;&#xa;" style="edgeStyle=orthogonalEdgeStyle;rounded=0;orthogonalLoop=1;jettySize=auto;exitX=0.5;exitY=1;exitDx=0;exitDy=0;entryX=0;entryY=0.5;entryDx=0;entryDy=0;startArrow=classic;startFill=1;align=left;strokeWidth=2;fillColor=#d5e8d4;strokeColor=#82b366;labelBackgroundColor=none;fontStyle=1;fontColor=default;" edge="1" parent="1" source="bY9OKArqrkYzBHjtCmCj-2" target="bY9OKArqrkYzBHjtCmCj-21">
          <mxGeometry x="-0.5325" y="5" relative="1" as="geometry">
            <Array as="points" />
            <mxPoint as="offset" />
          </mxGeometry>
        </mxCell>
        <mxCell id="bY9OKArqrkYzBHjtCmCj-30" value="ESeu" style="edgeStyle=orthogonalEdgeStyle;rounded=0;orthogonalLoop=1;jettySize=auto;exitX=0;exitY=0.5;exitDx=0;exitDy=0;entryX=1;entryY=0.5;entryDx=0;entryDy=0;startArrow=classic;startFill=1;strokeWidth=2;labelBackgroundColor=none;verticalAlign=bottom;fontStyle=1;fontColor=default;" edge="1" parent="1" source="bY9OKArqrkYzBHjtCmCj-7" target="bY9OKArqrkYzBHjtCmCj-24">
          <mxGeometry relative="1" as="geometry">
            <mxPoint x="555" y="460" as="targetPoint" />
          </mxGeometry>
        </mxCell>
        <mxCell id="bY9OKArqrkYzBHjtCmCj-31" value="ES11" style="edgeStyle=orthogonalEdgeStyle;rounded=0;orthogonalLoop=1;jettySize=auto;exitX=0.5;exitY=1;exitDx=0;exitDy=0;entryX=0;entryY=0.5;entryDx=0;entryDy=0;startArrow=classic;startFill=1;fillColor=#f8cecc;strokeColor=#b85450;align=right;strokeWidth=2;labelBackgroundColor=none;verticalAlign=middle;fontStyle=1;fontColor=default;" edge="1" parent="1" source="bY9OKArqrkYzBHjtCmCj-4" target="bY9OKArqrkYzBHjtCmCj-23">
          <mxGeometry relative="1" as="geometry" />
        </mxCell>
        <mxCell id="bY9OKArqrkYzBHjtCmCj-32" value="LPD" style="rounded=1;fillColor=#f5f5f5;fontColor=default;strokeColor=#666666;labelBackgroundColor=none;" vertex="1" parent="1">
          <mxGeometry x="365" y="475" width="100" height="30" as="geometry" />
        </mxCell>
        <mxCell id="bY9OKArqrkYzBHjtCmCj-33" value="ES6" style="edgeStyle=orthogonalEdgeStyle;rounded=0;orthogonalLoop=1;jettySize=auto;exitX=1;exitY=0.5;exitDx=0;exitDy=0;entryX=1;entryY=0.5;entryDx=0;entryDy=0;startArrow=classic;startFill=1;fillColor=#dae8fc;strokeColor=#6c8ebf;strokeWidth=2;align=left;labelBackgroundColor=none;verticalAlign=bottom;fontStyle=1;fontColor=default;" edge="1" parent="1" source="bY9OKArqrkYzBHjtCmCj-6" target="bY9OKArqrkYzBHjtCmCj-17">
          <mxGeometry x="-0.9151" relative="1" as="geometry">
            <mxPoint as="offset" />
            <mxPoint x="595" y="582.5" as="targetPoint" />
            <Array as="points">
              <mxPoint x="720" y="320" />
              <mxPoint x="720" y="566" />
            </Array>
          </mxGeometry>
        </mxCell>
        <mxCell id="bY9OKArqrkYzBHjtCmCj-35" style="edgeStyle=orthogonalEdgeStyle;rounded=0;orthogonalLoop=1;jettySize=auto;exitX=0.5;exitY=1;exitDx=0;exitDy=0;entryX=0.5;entryY=0;entryDx=0;entryDy=0;startArrow=classic;startFill=1;strokeWidth=2;fillColor=#fff2cc;strokeColor=#d6b656;" edge="1" parent="1" source="bY9OKArqrkYzBHjtCmCj-34" target="bY9OKArqrkYzBHjtCmCj-2">
          <mxGeometry relative="1" as="geometry" />
        </mxCell>
        <mxCell id="bY9OKArqrkYzBHjtCmCj-37" style="edgeStyle=orthogonalEdgeStyle;rounded=0;orthogonalLoop=1;jettySize=auto;exitX=0.25;exitY=1;exitDx=0;exitDy=0;entryX=0.25;entryY=0;entryDx=0;entryDy=0;startArrow=classic;startFill=1;strokeWidth=2;fillColor=#fff2cc;strokeColor=#d6b656;" edge="1" parent="1" source="bY9OKArqrkYzBHjtCmCj-34" target="bY9OKArqrkYzBHjtCmCj-4">
          <mxGeometry relative="1" as="geometry">
            <Array as="points">
              <mxPoint x="379" y="280" />
              <mxPoint x="200" y="280" />
            </Array>
          </mxGeometry>
        </mxCell>
        <mxCell id="bY9OKArqrkYzBHjtCmCj-38" style="edgeStyle=orthogonalEdgeStyle;rounded=0;orthogonalLoop=1;jettySize=auto;exitX=0.75;exitY=1;exitDx=0;exitDy=0;entryX=0.5;entryY=0;entryDx=0;entryDy=0;startArrow=classic;startFill=1;strokeWidth=2;fillColor=#fff2cc;strokeColor=#d6b656;" edge="1" parent="1" source="bY9OKArqrkYzBHjtCmCj-34" target="bY9OKArqrkYzBHjtCmCj-6">
          <mxGeometry relative="1" as="geometry" />
        </mxCell>
        <mxCell id="bY9OKArqrkYzBHjtCmCj-34" value="eSIM Management Portal" style="rounded=0;labelBackgroundColor=none;fillColor=#fff2cc;strokeColor=#d6b656;" vertex="1" parent="1">
          <mxGeometry x="342.5" y="220" width="145" height="40" as="geometry" />
        </mxCell>
      </root>
    </mxGraphModel>
  </diagram>
</mxfile>
